<svg width="10" height="11" viewBox="0.149169921875 0.100006103515625 9.70166015625 10.79998779296875" fill="none" xmlns="http://www.w3.org/2000/svg">
<path fill-rule="evenodd" clip-rule="evenodd" d="M7.09141 0.0285621C6.66433 0.115625 5.74994 0.388004 5.2071 0.589818C3.46157 1.23879 2.26976 1.92703 1.32691 2.8305C0.628296 3.49989 0.290004 4.02508 0.102034 4.73189C0.0179321 5.0483 0.00374201 5.18562 0.000473301 5.71496C-0.00275695 6.24503 0.00897193 6.37516 0.085152 6.65454C0.339765 7.58793 0.946437 8.39134 1.76231 8.87561L2.0986 9.07523L1.7325 9.3468C1.53115 9.49616 1.2237 9.70505 1.04927 9.81099C0.874833 9.91694 0.698938 10.0337 0.658368 10.0704C0.390026 10.3132 0.438788 10.7327 0.757967 10.9274C1.01389 11.0834 1.28269 10.9998 1.93436 10.5617C3.37851 9.59076 4.76986 7.93387 5.64915 6.13797C6.12649 5.16301 6.4116 4.31257 6.51297 3.56146C6.57019 3.13733 6.60538 3.04231 6.70532 3.04231C6.75431 3.04231 6.78873 3.07377 6.79996 3.12883C6.85172 3.38295 6.85764 3.65537 6.82061 4.08434C6.66225 5.91873 5.85765 8.05939 4.7984 9.46436C4.64692 9.66529 4.53013 9.84157 4.53894 9.85606C4.54771 9.8706 4.67199 9.96032 4.81516 10.0555C5.4864 10.5017 6.30308 10.5733 7.22601 10.2669C8.12871 9.96716 8.85936 9.32442 9.31856 8.42606C9.54817 7.97683 9.67869 7.59124 9.79106 7.02994C9.90366 6.46765 9.91254 5.27664 9.80863 4.67832C9.53575 3.10711 8.85156 1.57389 7.90805 0.41923C7.78088 0.263563 7.65059 0.114471 7.61856 0.0878987C7.50646 -0.00516326 7.34557 -0.0232758 7.09141 0.0285621Z" fill="white"/>
</svg>
