<svg width="4" height="4" viewBox="0.1390380859375 0.14276123046875 3.721923828125 3.7144775390625" fill="none" xmlns="http://www.w3.org/2000/svg">
<path d="M1.99996 0C1.16342 0.00344576 0.407418 0.532952 0.118611 1.3163C-0.169061 2.09621 0.0794871 3.01049 0.723874 3.53653C1.37286 4.06833 2.3095 4.14528 3.03206 3.70997C3.75353 3.27579 4.1252 2.42009 3.96182 1.59665C3.80073 0.796073 3.12643 0.148256 2.31636 0.0253673C2.21164 0.00928678 2.10578 9.8708e-05 1.99992 9.8708e-05C1.85148 -0.00104988 1.85148 0.228674 1.99992 0.229829C2.73061 0.233275 3.41065 0.69387 3.66264 1.38418C3.91923 2.08826 3.70176 2.88541 3.12527 3.36436C2.55454 3.83874 1.71684 3.89271 1.08397 3.51138C0.453393 3.13119 0.115097 2.37312 0.262384 1.65064C0.40967 0.928159 1.00111 0.366496 1.7295 0.249342C1.81926 0.235558 1.91016 0.229815 1.99992 0.229815C2.14836 0.228667 2.14836 -0.0010502 1.99992 8.39659e-05L1.99996 0Z" fill="white"/>
</svg>
