<svg width="4" height="4" viewBox="0.1390380859375 0.14276123046875 3.721923828125 3.7144775390625" fill="none" xmlns="http://www.w3.org/2000/svg">
<path d="M1.99996 0C1.16342 0.00459441 0.407418 0.532952 0.118611 1.3163C-0.169061 2.09621 0.0794871 3.01049 0.723874 3.53653C1.37286 4.06833 2.3095 4.14528 3.03206 3.70997C3.75354 3.27579 4.1252 2.42009 3.96182 1.59665C3.80073 0.797229 3.12643 0.148256 2.31636 0.0265017C2.21164 0.0104211 2.10578 0.00123291 1.99992 8.40461e-05C1.85148 -0.00106455 1.85148 0.22866 1.99992 0.229815C2.73061 0.233261 3.41065 0.693856 3.66264 1.38416C3.91923 2.08825 3.70176 2.88539 3.12527 3.36435C2.55454 3.83872 1.71684 3.8927 1.08397 3.51137C0.453393 3.13117 0.115097 2.37311 0.262383 1.65063C0.40967 0.928165 1.00111 0.366482 1.7295 0.249327C1.81926 0.235544 1.91016 0.229801 1.99992 0.229801C2.14836 0.229801 2.14836 6.95443e-05 1.99992 6.95443e-05L1.99996 0Z" fill="white"/>
</svg>
