<svg width="8" height="10" viewBox="0.27099609375 0.20001220703125 7.4580078125 9.5999755859375" fill="none" xmlns="http://www.w3.org/2000/svg">
<path d="M1.88431 9.7771H0.471233C0.397623 9.7771 0.324013 9.78044 0.251529 9.7771C0.220302 9.77599 0.214724 9.76597 0.228109 9.74148C0.251529 9.69806 0.278296 9.65576 0.30395 9.61345C0.444477 9.37743 0.583898 9.14141 0.724412 8.9054C0.955272 8.51575 1.18725 8.12611 1.41813 7.73533C1.70812 7.24659 1.9981 6.75786 2.28806 6.26802C2.6048 5.73364 2.92266 5.19927 3.2394 4.66377C3.55057 4.14053 3.86062 3.61728 4.17179 3.09292C4.4428 2.63647 4.71382 2.17892 4.98483 1.72247C5.18336 1.38737 5.38188 1.05339 5.5804 0.718288C5.67297 0.561315 5.76777 0.405458 5.85923 0.248483C5.86703 0.23401 5.87038 0.22733 5.88599 0.222878C5.90049 0.219538 5.92057 0.222878 5.93507 0.222878H6.0544H6.89979C7.10612 0.222878 7.31469 0.213972 7.52101 0.222878C7.54778 0.223991 7.55336 0.235124 7.54109 0.258503C7.53328 0.272976 7.52324 0.287449 7.51544 0.301921C7.40279 0.492294 7.29015 0.682663 7.17751 0.871924C6.9645 1.23039 6.75146 1.58889 6.53957 1.94736C6.26074 2.41716 5.98191 2.88809 5.70309 3.35789C5.38969 3.88559 5.0774 4.41329 4.76401 4.93987C4.44837 5.47091 4.13387 6.00195 3.81824 6.53409C3.53384 7.01615 3.24943 7.49485 2.96616 7.97245C2.74755 8.34206 2.52785 8.71057 2.30925 9.08017C2.18768 9.28501 2.06611 9.48986 1.94454 9.69472C1.93339 9.71364 1.90885 9.77487 1.88431 9.7771C1.74156 9.78489 1.74044 10.0087 1.88431 9.99977C2.01592 9.99197 2.07503 9.91182 2.13302 9.81385C2.17875 9.73592 2.22559 9.65799 2.27132 9.58007C2.44753 9.28281 2.62486 8.98445 2.80109 8.68722C3.05985 8.2508 3.31971 7.8144 3.57845 7.37688C3.88627 6.8581 4.1941 6.33929 4.50191 5.82051C4.82423 5.27722 5.14654 4.73394 5.46886 4.19067C5.7711 3.68078 6.07446 3.16979 6.37672 2.6599C6.62543 2.2402 6.87525 1.82049 7.12398 1.40077C7.2857 1.12802 7.44741 0.856373 7.60913 0.583606C7.64593 0.521262 7.68274 0.458918 7.71955 0.397688C7.72512 0.387668 7.73181 0.378762 7.73627 0.368742C7.82996 0.198408 7.71062 0.00803152 7.52102 0.00247399C7.31135 -0.00309249 7.10055 0.00247399 6.88976 0.00247399H6.03434C5.97076 0.00247399 5.90273 -0.00420563 5.84028 0.00692714C5.76443 0.0213999 5.70756 0.0692713 5.66852 0.133842C5.63729 0.185053 5.60718 0.237377 5.57706 0.28859C5.4265 0.542425 5.27593 0.796259 5.12538 1.05007C4.88336 1.45754 4.64135 1.86499 4.39931 2.27358C4.0993 2.77901 3.79928 3.28444 3.49927 3.78987C3.17584 4.33427 2.85351 4.87866 2.53008 5.42196C2.22003 5.9452 1.90886 6.46844 1.59881 6.9928C1.33337 7.43924 1.06904 7.88677 0.803612 8.33321C0.618474 8.64604 0.432218 8.95887 0.247081 9.2706C0.175702 9.39083 0.0987474 9.50996 0.0318225 9.63352C-0.0607477 9.80386 0.0597054 9.99645 0.250426 9.99869C0.326267 9.99981 0.403221 9.99869 0.479062 9.99869H1.36237H1.88321C2.0282 9.99981 2.0282 9.77715 1.88432 9.77715L1.88431 9.7771Z" fill="white"/>
</svg>
