<svg width="8" height="12" viewBox="0.3380126953125 0.1199951171875 7.323974609375 11.760009765625" fill="none" xmlns="http://www.w3.org/2000/svg">
<path d="M5.62839 3.3235C5.74869 1.06411 4.41179 0.128298 3.14175 0.00797658C2.4733 -0.0588878 2.52673 0.315441 2.58025 0.355548C2.58025 0.355548 4.9466 0.663012 4.53218 3.06947C2.55358 2.74858 1.16318 3.95185 1.16318 5.46253C1.16318 6.49197 1.40377 6.91973 1.40377 8.00264C1.40377 9.28612 0 10.1684 0 11.1845C0 11.6925 0.481286 12 1.06955 12C4.1578 12 7.47332 9.35292 7.47332 5.99729C7.47332 4.48666 6.64447 3.53738 5.62847 3.32348L5.62839 3.3235Z" fill="white"/>
</svg>
